<?xml version="1.0" standalone="no"?><svg xmlns="http://www.w3.org/2000/svg" viewBox="0 0 1440 320"><path fill="#00b894" fill-opacity="1" d="M0,192L26.7,176C53.3,160,107,128,160,122.7C213.3,117,267,139,320,170.7C373.3,203,427,245,480,250.7C533.3,256,587,224,640,181.3C693.3,139,747,85,800,96C853.3,107,907,181,960,176C1013.3,171,1067,85,1120,90.7C1173.3,96,1227,192,1280,234.7C1333.3,277,1387,267,1413,261.3L1440,256L1440,320L1413.3,320C1386.7,320,1333,320,1280,320C1226.7,320,1173,320,1120,320C1066.7,320,1013,320,960,320C906.7,320,853,320,800,320C746.7,320,693,320,640,320C586.7,320,533,320,480,320C426.7,320,373,320,320,320C266.7,320,213,320,160,320C106.7,320,53,320,27,320L0,320Z"></path></svg>